<?xml version="1.0" encoding="UTF-8"?>
<svg id="_レイヤー_2" data-name="レイヤー 2" xmlns="http://www.w3.org/2000/svg" viewBox="0 0 281.564411147573 72.090836092386">
  <defs>
    <style>
      .cls-1, .cls-2 {
        fill: #fff;
        stroke-width: 0px;
      }

      .cls-2 {
        fill-rule: evenodd;
      }
    </style>
  </defs>
  <g id="_レイヤー_1-2" data-name="レイヤー 1">
    <g>
      <path class="cls-2" d="m80.390511857772,38.326046210232c-1.087982676867,13.52884533385-11.750144836789,24.397213084803-25.191799525959,25.791128843497l-7.788388009685,7.973661038657h4.856127486863c19.875552768433,0,36.045418046193-16.16986527776,36.045418046193-36.045418046193,0-1.839285798636-.140117691844-3.646293473119-.407192223503-5.412230212828l-7.514165773908,7.692858376867Z"/>
      <path class="cls-2" d="m84.57583298591,26.037781363391l-.014238680425-.013898313564,1.75147114804-1.79316608873C81.409910611789,10.142308504842,68.004278082265,0,52.26645180899,0H18.795852351895v14.254110390619h7.821233411943v-6.432876978674h25.649366045152c10.679464142111,0,19.986455637889,5.965156181408,24.777913420821,14.736353507362l-8.541960243874,8.758944118895-10.945914667856-13.334552583017H15.639176610878L0,37.126990480478l34.749698127412,34.345625933483v.018266354969h5.580201259609v-.083162970137l44.24593359889-45.369938435402Zm-61.214866814827,12.549609869641l6.943597456271,17.495197113602-17.701402704635-17.495197113602h10.757805248364Zm15.237316801558-12.784236093716l7.584678442314,9.432076317845h-18.416967305813l7.584735170123-9.432076317845h3.247553693376Zm22.813429344495,12.784236093716l-18.251378827072,18.715015221985,7.427712590761-18.715015221985h10.823666236311Zm-14.218825692511,0l-9.745554198464,24.554802942271-1.556100568805-1.538004397267-9.135162957884-23.016798545003h20.436817725153Zm14.407559117921-3.352159775871h-11.367629210838l-7.584621714503-9.432076317845h11.209585530889l7.742665394451,9.432076317845Zm-42.251156871776-9.432076317845h11.951528563934l-7.584621714503,9.432076317845h-12.072302072407l7.705395222976-9.432076317845Z"/>
      <path class="cls-2" d="m125.782489760854,15.79920222588h-17.944580078125v40.402954101562h17.944580078125c11.669494628906,0,18.413024902344-8.678833007812,18.413024902344-20.113403320312,0-11.493408203125-6.743530273438-20.28955078125-18.413024902344-20.28955078125Zm0,32.369201660157h-8.73828125v-24.335388183595h8.73828125c6.0400390625,0,9.147888183594,5.92236328125,9.147888183594,12.255737304688,0,6.274536132812-3.107849121094,12.079650878907-9.147888183594,12.079650878907Z"/>
      <rect class="cls-1" x="148.311847671011" y="31.960396073538" width="12.923583984375" height="7.528259277343"/>
      <path class="cls-2" d="m189.267108901479,34.62244441338c4.632629394531-1.3486328125,5.687866210938-5.570617675781,5.687866210938-8.385131835938,0-5.981628417969-4.749816894531-10.438110351562-12.138488769531-10.438110351562h-16.360473632812v40.402954101562h17.533447265625c9.499633789062,0,13.076538085938-6.09844970703,13.076538085938-11.610595703125,0-4.632568359375-2.462768554688-9.206787109375-7.798889160156-9.969116210938Zm-13.604797363281-10.789428710938h6.509094238281c2.521545410156,0,3.577270507812,1.817626953125,3.577270507812,3.870178222656,0,2.462768554688-1.46630859375,3.870239257813-3.635681152344,3.870239257813h-6.45068359375v-7.74041748047Zm7.213012695312,24.335388183595h-7.213012695312v-9.030639648438h7.213012695312c3.459594726562,0,4.925476074219,2.404357910156,4.925476074219,4.515319824219,0,2.287109375-1.641967773438,4.51531982422-4.925476074219,4.51531982422Z"/>
      <polygon class="cls-2" points="267.549457534292 34.681282304005 280.333026870229 15.79920222588 269.308673842886 15.79920222588 262.096088393667 27.35144831963 255.000751479604 15.79920222588 243.859149917104 15.79920222588 256.583942397573 34.681282304005 242.686176284292 56.202156327443 253.476032241323 56.202156327443 262.096088393667 42.01111628838 270.716144546011 56.202156327443 281.564411147573 56.202156327443 267.549457534292 34.681282304005"/>
      <path class="cls-2" d="m241.009784682729,25.353035233693c-1.863830566406-3.075317382812-4.417175292969-5.48907470703-7.659912109375-7.240966796875s-6.895812988281-2.627868652344-10.958557128906-2.627868652344c-4.063110351562,0-7.725341796875.8759765625-10.986511230469,2.627868652344-2.458251953125,1.320251464845-4.513793945312,3.016662597656-6.16748046875,5.088012695312h17.153991699219c2.310852050781,0,4.398193359375.531494140625,6.261962890625,1.593444824219,1.863891601562,1.062377929688,3.326721191406,2.544189453125,4.389099121094,4.445007324219,1.0625,1.901428222656,1.593444824219,4.063354492188,1.593444824219,6.48602294922,0,2.4228515625-.530944824219,4.584594726562-1.593444824219,6.485961914062-1.062377929688,1.900817871094-2.525207519531,3.382873535156-4.389099121094,4.444641113281-1.86376953125,1.0625-3.951110839844,1.593872070312-6.261962890625,1.593872070312-2.311218261719,0-4.398620605469-.531372070312-6.262512207031-1.593872070312-1.863159179688-1.061767578125-3.326599121094-2.543823242188-4.389038085938-4.444641113281-1.06201171875-1.9013671875-1.593383789062-4.063110351562-1.593383789062-6.485961914062,0-2.422668457032.531372070312-4.584594726563,1.593383789062-6.48602294922.92919921875-1.66241455078,2.164855957031-3.004333496094,3.707092285156-4.025634765625l-8.826782226562.10565185547c-1.9638671875.023315429687-3.625366210938,1.179748535155-4.3291015625,3.01348876953-.875793457031,2.282348632812-1.313781738281,4.74676513672-1.313781738281,7.392517089845,0,3.839294433593.92236328125,7.296508789062,2.767272949219,10.371643066405,1.845275878906,3.07537841797,4.398620605469,5.488525390625,7.660339355469,7.240966796875,3.261169433594,1.751770019531,6.923400878906,2.627685546875,10.986511230469,2.627685546875,4.062744140625,0,7.7158203125-.875915527344,10.958557128906-2.627685546875,3.242736816406-1.75244140625,5.796081542969-4.165588378905,7.659912109375-7.240966796875,1.86376953125-3.075134277344,2.795837402344-6.532348632812,2.795837402344-10.371643066405,0-3.839111328125-.932067871094-7.296325683595-2.795837402344-10.371520996095Z"/>
    </g>
  </g>
</svg>